<svg xmlns="http://www.w3.org/2000/svg" viewBox="0 0 947.3 940.5">
<defs>
<linearGradient id="gold" x1="0%" y1="0%" x2="100%" y2="100%">
<stop offset="0%" stop-color="#F7E98E"/>
<stop offset="25%" stop-color="#EEDC6B"/>
<stop offset="50%" stop-color="#D4AF37"/>
<stop offset="75%" stop-color="#C5A028"/>
<stop offset="100%" stop-color="#996515"/>
</linearGradient>
</defs>
<path fill="url(#gold)" fill-rule="evenodd" d="M 448.5 0.6c-66.1 3.7-124.7 18.5-181.7 45.9-124.2 59.7-215.7 170.2-251.2 303.7-11.3 42.6-15.6 80-14.8 129 0.6 40 4 66.7 12.8 102.8 43.9 179.5 190.3 317.5 371.9 350.4 33.1 6 59.5 8.1 94.5 7.3 26.8-0.6 36.6-1.4 59-4.7 175.6-26 321.4-148.8 377.4-318 27.7-83.4 30.9-177.1 9.1-262.5-49.3-193.4-214.2-334-413.5-352.5-11.8-1.1-52.8-2-63.5-1.4zm 68 65.9c 126 15.6 233.1 84 300 191.6 9.9 15.9 23.6 43.4 31.3 62.9 42.8 108.3 37.1 229.9-15.8 333.5-39.4 77.3-102.3 139.8-179.5 178.5-42.4 21.2-84.7 34-134.5 40.7-19.1 2.5-76.3 2.5-96 0-108.4-14.1-202.8-66.7-269.4-150.2-80-100.1-108-232.1-75.6-356 17.9-68.3 52.5-129.6 102-180.4 48-49.2 103.2-83.3 169.5-104.6 23.4-7.5 55.7-14.1 80-16.4 6.3-0.6 13.3-1.3 15.5-1.5 9.3-0.9 60.7 0.4 72.5 1.9z"/>
<path fill="url(#gold)" d="M 152.1 311.7c-1.7 5.9-18.8 82.4-18.5 82.7 0.2 0.2 1.3 0.6 2.4 0.8 1.4 0.2 2.7-1 5.1-5.2 16.7-28.6 30.7-40.7 56.5-48.5 16.8-5.1 37.7-7.3 77.8-8.2 27.6-0.6 28.4-0.6 27.9 1.3-0.3 1-38.4 65.3-84.7 142.7-46.3 77.4-84.4 141.3-84.6 142-0.3 0.7-0.1 1.9 0.5 2.7 0.8 1.3 15.1 1.5 117.3 1.8l 116.4 0.2 1.1-2.7c 1.7-4.5 7.5-70.4 6.3-71.6-1.9-1.9-3.7 0.1-5 5.6-1.4 6.4-6.6 17.6-11 23.8-8.5 11.9-23.4 24.1-36 29.3-14.3 6.1-12.9 5.9-72.3 6.4-48.5 0.3-54.8 0.2-54.8-1.2 0-0.8 37.1-64.3 82.5-141 45.4-76.7 83-140.6 83.7-142.1 0.9-2 0.9-2.8-0.1-3.8-0.9-0.9-23.8-1.3-98.9-1.7-88.8-0.5-98-0.7-101.4-2.2-3.7-1.7-4.4-3-5-9.3-0.3-3.5-4.3-4.9-5.2-1.8z"/>
<path fill="url(#gold)" d="M 396.7 328c 0.3 2.3 0.8 2.6 6.3 3.1 11.2 1.1 16.6 5.8 24.9 21.9 3 5.8 33 69 66.6 140.5 33.7 71.5 61.8 130.3 62.4 130.7 1.8 1.2 7.3 0.9 8.3-0.5 0.6-0.6 11.7-30.1 24.9-65.4 13.1-35.3 24.2-63.9 24.6-63.5 0.4 0.4 14.3 29.5 30.9 64.7 16.6 35.2 30.7 64.3 31.3 64.7 1.8 1.2 7.3 0.9 8.3-0.5 0.6-0.6 20.9-54.5 45.3-119.7 24.4-65.2 46-122.1 48-126.6 12.4-26.9 33.8-46.4 51.1-46.4 2.9 0 3.9-0.5 4.4-2.1 0.4-1.1 0.4-2.3 0.1-2.7-0.4-0.3-22.5-0.6-49.1-0.6-44.3-0.1-48.4 0-48.8 1.6-0.6 2.2 1.2 3.8 4.3 3.8 5.5 0 10.3 2.2 15.1 7 6.7 6.7 9.4 15.5 8.6 28.4-0.3 5-1.5 12.2-2.7 16.1-2.6 8.3-63 170.7-63.9 171.7-0.3 0.4-13.6-26.6-29.4-59.8l-28.8-60.6 9-23.6c 10.8-28.4 13.4-34.8 17.2-42.4 10.9-21.6 25.5-34.9 40.3-36.7 4.6-0.5 5.1-0.8 5.1-3.1l 0-2.5-34.7 0c-28.6 0-34.9 0.2-35.3 1.4-0.8 1.9 1.3 4.1 4 4.1 3.8 0 7.2 3.6 8.5 8.9 2.1 9-0.8 21.4-12.6 53.6-4.7 12.6-8.7 23.1-8.9 23.4-0.3 0.2-3.9-6.8-8.1-15.5-20.3-42.4-24.9-53.3-26-61.7-0.8-5.3 1.4-7.6 8.3-8.5 4.2-0.6 4.8-1 4.8-3.1l 0-2.4-44.2-0.1c-36.7-0.1-44.4 0.1-44.8 1.3-0.8 2.1 1.1 3.8 5 4.4 10.7 1.7 16 10.6 50.9 84.4l 28.8 61.2-14.8 39.5c-8.2 21.7-15.1 39.3-15.3 39.1-0.8-0.9-89.1-188.8-91.9-195.8-4.6-11.5-6-19.1-4.1-22.5 2-3.7 6.2-5.5 14.4-6.1 6.5-0.6 7-0.8 7.3-3.1l 0.3-2.5-53.1 0-53.1 0 0.3 2.5z"/>
</svg>
